<svg width="200" height="305" viewBox="0 0 200 305" fill="none" xmlns="http://www.w3.org/2000/svg">
<path d="M99.9999 69.5833C95.2384 67.1421 89.8314 66.2552 84.5396 67.0474C79.2478 67.8397 74.3375 70.2713 70.4999 74C65.8182 78.6875 63.1885 85.0416 63.1885 91.6667C63.1885 98.2917 65.8182 104.646 70.4999 109.333L94.0832 133.333C94.8579 134.114 95.7796 134.734 96.7951 135.157C97.8106 135.58 98.8998 135.798 99.9999 135.798C101.1 135.798 102.189 135.58 103.205 135.157C104.22 134.734 105.142 134.114 105.917 133.333L129.5 109.75C134.182 105.062 136.811 98.7084 136.811 92.0833C136.811 85.4583 134.182 79.1042 129.5 74.4167C125.71 70.6199 120.823 68.1105 115.529 67.2431C110.235 66.3758 104.803 67.1944 99.9999 69.5833ZM117.667 97.5833L99.9999 115.25L82.3332 97.5833C81.5521 96.8086 80.9322 95.887 80.5091 94.8715C80.086 93.856 79.8682 92.7668 79.8682 91.6667C79.8682 90.5666 80.086 89.4773 80.5091 88.4619C80.9322 87.4464 81.5521 86.5247 82.3332 85.75C83.8946 84.1979 86.0067 83.3267 88.2082 83.3267C90.4098 83.3267 92.5219 84.1979 94.0832 85.75C94.8579 86.5311 95.7796 87.151 96.7951 87.5741C97.8106 87.9972 98.8998 88.215 99.9999 88.215C101.1 88.215 102.189 87.9972 103.205 87.5741C104.22 87.151 105.142 86.5311 105.917 85.75C107.478 84.1979 109.59 83.3267 111.792 83.3267C113.993 83.3267 116.105 84.1979 117.667 85.75C118.448 86.5247 119.068 87.4464 119.491 88.4619C119.914 89.4773 120.132 90.5666 120.132 91.6667C120.132 92.7668 119.914 93.856 119.491 94.8715C119.068 95.887 118.448 96.8086 117.667 97.5833ZM99.9999 16.6667C89.0564 16.6667 78.22 18.8221 68.1096 23.01C57.9991 27.1979 48.8125 33.3362 41.0743 41.0744C25.4463 56.7025 16.6665 77.8986 16.6665 100C16.5937 119.243 23.2565 137.904 35.4999 152.75L18.8332 169.417C17.6769 170.589 16.8936 172.077 16.5821 173.693C16.2707 175.31 16.445 176.982 17.0832 178.5C17.7753 179.999 18.8974 181.259 20.3069 182.12C21.7164 182.98 23.3499 183.403 24.9999 183.333H99.9999C122.101 183.333 143.297 174.554 158.925 158.926C174.553 143.298 183.333 122.101 183.333 100C183.333 77.8986 174.553 56.7025 158.925 41.0744C143.297 25.4464 122.101 16.6667 99.9999 16.6667ZM99.9999 166.667H45.0832L52.8332 158.917C54.3853 157.355 55.2565 155.243 55.2565 153.042C55.2565 150.84 54.3853 148.728 52.8332 147.167C41.9214 136.267 35.1263 121.921 33.6056 106.573C32.0849 91.2254 35.9327 75.825 44.4934 62.996C53.0541 50.167 65.7981 40.703 80.5542 36.2164C95.3102 31.7299 111.165 32.4984 125.418 38.3909C139.671 44.2835 151.44 54.9356 158.72 68.5324C166 82.1292 168.34 97.8295 165.343 112.958C162.345 128.087 154.194 141.709 142.279 151.502C130.365 161.295 115.423 166.655 99.9999 166.667Z" fill="#F9F9F9"/>
<path d="M22.44 252.96C19.36 252.96 17 253.9 15.36 255.78C13.72 257.66 12.9 260.32 12.9 263.76C12.9 267.24 13.8 269.92 15.6 271.8C17.44 273.68 19.9 274.62 22.98 274.62C24.62 274.62 26 274.4 27.12 273.96C28.28 273.52 29.38 273.02 30.42 272.46C31.1 273.02 31.62 273.7 31.98 274.5C32.38 275.26 32.58 276.16 32.58 277.2C32.58 278.84 31.66 280.24 29.82 281.4C28.02 282.52 25.26 283.08 21.54 283.08C18.86 283.08 16.34 282.7 13.98 281.94C11.62 281.18 9.56 280.02 7.8 278.46C6.04 276.86 4.64 274.86 3.6 272.46C2.6 270.02 2.1 267.12 2.1 263.76C2.1 260.64 2.58 257.9 3.54 255.54C4.54 253.14 5.88 251.12 7.56 249.48C9.28 247.84 11.28 246.6 13.56 245.76C15.84 244.92 18.28 244.5 20.88 244.5C24.56 244.5 27.4 245.1 29.4 246.3C31.44 247.5 32.46 249.04 32.46 250.92C32.46 251.96 32.2 252.86 31.68 253.62C31.16 254.38 30.56 254.98 29.88 255.42C28.84 254.74 27.72 254.16 26.52 253.68C25.36 253.2 24 252.96 22.44 252.96ZM66.1973 281.94C65.7973 282.06 65.1573 282.18 64.2773 282.3C63.4373 282.42 62.5573 282.48 61.6373 282.48C60.7573 282.48 59.9573 282.42 59.2373 282.3C58.5573 282.18 57.9773 281.94 57.4973 281.58C57.0173 281.22 56.6373 280.74 56.3573 280.14C56.1173 279.5 55.9973 278.68 55.9973 277.68V264.36C55.9973 262.72 55.5773 261.58 54.7373 260.94C53.9373 260.26 52.9373 259.92 51.7373 259.92C50.9373 259.92 50.1773 260.02 49.4573 260.22C48.7373 260.42 48.1573 260.66 47.7173 260.94V281.94C47.3173 282.06 46.6773 282.18 45.7973 282.3C44.9573 282.42 44.0773 282.48 43.1573 282.48C42.2773 282.48 41.4773 282.42 40.7573 282.3C40.0773 282.18 39.4973 281.94 39.0173 281.58C38.5373 281.22 38.1573 280.74 37.8773 280.14C37.6373 279.5 37.5173 278.68 37.5173 277.68V242.88C37.9573 242.8 38.5973 242.7 39.4373 242.58C40.3173 242.42 41.1973 242.34 42.0773 242.34C42.9573 242.34 43.7373 242.4 44.4173 242.52C45.1373 242.64 45.7373 242.88 46.2173 243.24C46.6973 243.6 47.0573 244.1 47.2973 244.74C47.5773 245.34 47.7173 246.14 47.7173 247.14V253.02C48.2373 252.82 49.0173 252.6 50.0573 252.36C51.1373 252.08 52.3173 251.94 53.5973 251.94C57.5573 251.94 60.6373 252.94 62.8373 254.94C65.0773 256.9 66.1973 259.84 66.1973 263.76V281.94ZM84.975 275.52C85.655 275.52 86.395 275.46 87.195 275.34C88.035 275.18 88.655 274.98 89.055 274.74V269.94L84.735 270.3C83.615 270.38 82.695 270.62 81.975 271.02C81.255 271.42 80.895 272.02 80.895 272.82C80.895 273.62 81.195 274.28 81.795 274.8C82.435 275.28 83.495 275.52 84.975 275.52ZM84.495 251.94C86.655 251.94 88.615 252.16 90.375 252.6C92.175 253.04 93.695 253.72 94.935 254.64C96.215 255.52 97.195 256.66 97.875 258.06C98.555 259.42 98.895 261.04 98.895 262.92V276.36C98.895 277.4 98.595 278.26 97.995 278.94C97.435 279.58 96.755 280.14 95.955 280.62C93.355 282.18 89.695 282.96 84.975 282.96C82.855 282.96 80.935 282.76 79.215 282.36C77.535 281.96 76.075 281.36 74.835 280.56C73.635 279.76 72.695 278.74 72.015 277.5C71.375 276.26 71.055 274.82 71.055 273.18C71.055 270.42 71.875 268.3 73.515 266.82C75.155 265.34 77.695 264.42 81.135 264.06L88.995 263.22V262.8C88.995 261.64 88.475 260.82 87.435 260.34C86.435 259.82 84.975 259.56 83.055 259.56C81.535 259.56 80.055 259.72 78.615 260.04C77.175 260.36 75.875 260.76 74.715 261.24C74.195 260.88 73.755 260.34 73.395 259.62C73.035 258.86 72.855 258.08 72.855 257.28C72.855 256.24 73.095 255.42 73.575 254.82C74.095 254.18 74.875 253.64 75.915 253.2C77.075 252.76 78.435 252.44 79.995 252.24C81.595 252.04 83.095 251.94 84.495 251.94ZM115.332 271.98C115.332 273.02 115.652 273.76 116.292 274.2C116.972 274.64 117.912 274.86 119.112 274.86C119.712 274.86 120.332 274.82 120.972 274.74C121.612 274.62 122.172 274.48 122.652 274.32C123.012 274.76 123.312 275.26 123.552 275.82C123.832 276.34 123.972 276.98 123.972 277.74C123.972 279.26 123.392 280.5 122.232 281.46C121.112 282.42 119.112 282.9 116.232 282.9C112.712 282.9 109.992 282.1 108.072 280.5C106.192 278.9 105.252 276.3 105.252 272.7V247.02C105.692 246.9 106.312 246.78 107.112 246.66C107.952 246.5 108.832 246.42 109.752 246.42C111.512 246.42 112.872 246.74 113.832 247.38C114.832 247.98 115.332 249.28 115.332 251.28V255.12H123.192C123.432 255.56 123.652 256.12 123.852 256.8C124.092 257.44 124.212 258.16 124.212 258.96C124.212 260.36 123.892 261.38 123.252 262.02C122.652 262.62 121.832 262.92 120.792 262.92H115.332V271.98ZM139.355 271.98C139.355 273.02 139.675 273.76 140.315 274.2C140.995 274.64 141.935 274.86 143.135 274.86C143.735 274.86 144.355 274.82 144.995 274.74C145.635 274.62 146.195 274.48 146.675 274.32C147.035 274.76 147.335 275.26 147.575 275.82C147.855 276.34 147.995 276.98 147.995 277.74C147.995 279.26 147.415 280.5 146.255 281.46C145.135 282.42 143.135 282.9 140.255 282.9C136.735 282.9 134.015 282.1 132.095 280.5C130.215 278.9 129.275 276.3 129.275 272.7V247.02C129.715 246.9 130.335 246.78 131.135 246.66C131.975 246.5 132.855 246.42 133.775 246.42C135.535 246.42 136.895 246.74 137.855 247.38C138.855 247.98 139.355 249.28 139.355 251.28V255.12H147.215C147.455 255.56 147.675 256.12 147.875 256.8C148.115 257.44 148.235 258.16 148.235 258.96C148.235 260.36 147.915 261.38 147.275 262.02C146.675 262.62 145.855 262.92 144.815 262.92H139.355V271.98ZM152.939 244.74C152.939 243.22 153.439 241.94 154.439 240.9C155.479 239.86 156.839 239.34 158.519 239.34C160.199 239.34 161.539 239.86 162.539 240.9C163.579 241.94 164.099 243.22 164.099 244.74C164.099 246.26 163.579 247.54 162.539 248.58C161.539 249.62 160.199 250.14 158.519 250.14C156.839 250.14 155.479 249.62 154.439 248.58C153.439 247.54 152.939 246.26 152.939 244.74ZM163.619 281.94C163.179 282.02 162.519 282.12 161.639 282.24C160.799 282.4 159.939 282.48 159.059 282.48C158.179 282.48 157.379 282.42 156.659 282.3C155.979 282.18 155.399 281.94 154.919 281.58C154.439 281.22 154.059 280.74 153.779 280.14C153.539 279.5 153.419 278.68 153.419 277.68V253.26C153.859 253.18 154.499 253.08 155.339 252.96C156.219 252.8 157.099 252.72 157.979 252.72C158.859 252.72 159.639 252.78 160.319 252.9C161.039 253.02 161.639 253.26 162.119 253.62C162.599 253.98 162.959 254.48 163.199 255.12C163.479 255.72 163.619 256.52 163.619 257.52V281.94ZM185.532 282.96C183.172 282.96 180.972 282.64 178.932 282C176.932 281.32 175.172 280.32 173.652 279C172.172 277.68 170.992 276.02 170.112 274.02C169.272 272.02 168.852 269.68 168.852 267C168.852 264.36 169.272 262.1 170.112 260.22C170.992 258.3 172.132 256.74 173.532 255.54C174.932 254.3 176.532 253.4 178.332 252.84C180.132 252.24 181.972 251.94 183.852 251.94C185.972 251.94 187.892 252.26 189.612 252.9C191.372 253.54 192.872 254.42 194.112 255.54C195.392 256.66 196.372 258 197.052 259.56C197.772 261.12 198.132 262.82 198.132 264.66C198.132 266.02 197.752 267.06 196.992 267.78C196.232 268.5 195.172 268.96 193.812 269.16L178.992 271.38C179.432 272.7 180.332 273.7 181.692 274.38C183.052 275.02 184.612 275.34 186.372 275.34C188.012 275.34 189.552 275.14 190.992 274.74C192.472 274.3 193.672 273.8 194.592 273.24C195.232 273.64 195.772 274.2 196.212 274.92C196.652 275.64 196.872 276.4 196.872 277.2C196.872 279 196.032 280.34 194.352 281.22C193.072 281.9 191.632 282.36 190.032 282.6C188.432 282.84 186.932 282.96 185.532 282.96ZM183.852 259.38C182.892 259.38 182.052 259.54 181.332 259.86C180.652 260.18 180.092 260.6 179.652 261.12C179.212 261.6 178.872 262.16 178.632 262.8C178.432 263.4 178.312 264.02 178.272 264.66L188.532 262.98C188.412 262.18 187.972 261.38 187.212 260.58C186.452 259.78 185.332 259.38 183.852 259.38Z" fill="white"/>
</svg>
